<mxfile host="app.diagrams.net" agent="Mozilla/5.0 (Windows NT 10.0; Win64; x64) AppleWebKit/537.36 (KHTML, like Gecko) Chrome/126.0.0.0 Safari/537.36" version="24.7.6">
  <diagram name="Page-1" id="SjaHX0SKNCmMPlMpZnLW">
    <mxGraphModel dx="2925" dy="2389" grid="1" gridSize="10" guides="1" tooltips="1" connect="1" arrows="1" fold="1" page="1" pageScale="1" pageWidth="827" pageHeight="1169" math="0" shadow="0">
      <root>
        <mxCell id="0" />
        <mxCell id="1" parent="0" />
        <mxCell id="PyB6T44rJo8ZGuRNi5BV-1" value="" style="shape=cylinder3;whiteSpace=wrap;html=1;boundedLbl=1;backgroundOutline=1;size=15;rotation=90;" vertex="1" parent="1">
          <mxGeometry x="-11.88" y="-103.12" width="70" height="200" as="geometry" />
        </mxCell>
        <mxCell id="PyB6T44rJo8ZGuRNi5BV-2" value="&lt;b&gt;Swift-Core Mesaj Sahiplenme Queue&lt;/b&gt;" style="text;html=1;align=center;verticalAlign=middle;whiteSpace=wrap;rounded=0;" vertex="1" parent="1">
          <mxGeometry x="-100" y="-80" width="250" height="30" as="geometry" />
        </mxCell>
        <mxCell id="PyB6T44rJo8ZGuRNi5BV-4" value="&lt;b&gt;&lt;font style=&quot;font-size: 22px;&quot;&gt;PNR&lt;/font&gt;&lt;br&gt;&lt;br&gt;&lt;/b&gt;&lt;div&gt;&lt;b&gt;&lt;font style=&quot;font-size: 15px;&quot;&gt;&lt;u&gt;Message Types&lt;/u&gt;&lt;/font&gt;&lt;/b&gt;&lt;/div&gt;&lt;div&gt;&lt;ul&gt;&lt;li&gt;PACS.008&lt;/li&gt;&lt;li&gt;PACS.009&lt;/li&gt;&lt;li&gt;PACS.009COV&lt;/li&gt;&lt;li&gt;MT910&lt;/li&gt;&lt;li&gt;MT940&lt;/li&gt;&lt;li&gt;MT950&lt;/li&gt;&lt;/ul&gt;&lt;/div&gt;" style="rounded=1;whiteSpace=wrap;html=1;" vertex="1" parent="1">
          <mxGeometry x="240" y="-360" width="320" height="320" as="geometry" />
        </mxCell>
        <mxCell id="PyB6T44rJo8ZGuRNi5BV-5" value="&lt;b&gt;&lt;font style=&quot;font-size: 22px;&quot;&gt;Serbest Bölge = 612 Şube&lt;/font&gt;&lt;br&gt;&lt;/b&gt;&lt;div&gt;&lt;br&gt;&lt;/div&gt;" style="rounded=1;whiteSpace=wrap;html=1;" vertex="1" parent="1">
          <mxGeometry x="240" y="40" width="320" height="320" as="geometry" />
        </mxCell>
        <mxCell id="PyB6T44rJo8ZGuRNi5BV-7" value="&lt;span style=&quot;font-size: 22px;&quot;&gt;&lt;b&gt;&lt;strike&gt;Bahreyn Yok&lt;/strike&gt;&lt;/b&gt;&lt;/span&gt;" style="rounded=1;whiteSpace=wrap;html=1;" vertex="1" parent="1">
          <mxGeometry x="600" y="-360" width="320" height="320" as="geometry" />
        </mxCell>
        <mxCell id="PyB6T44rJo8ZGuRNi5BV-9" value="&lt;b&gt;&lt;font style=&quot;font-size: 22px;&quot;&gt;AHL&lt;/font&gt;&lt;br&gt;&lt;/b&gt;" style="rounded=1;whiteSpace=wrap;html=1;" vertex="1" parent="1">
          <mxGeometry x="600" y="40" width="320" height="320" as="geometry" />
        </mxCell>
        <mxCell id="PyB6T44rJo8ZGuRNi5BV-10" value="&lt;b&gt;&lt;font style=&quot;font-size: 22px;&quot;&gt;Saklama Şube = Şube 1111&lt;br&gt;&lt;/font&gt;&lt;/b&gt;(Sadece Gidende Özel Bir Durumu Olabilir, Gelende Olmayabilir)" style="rounded=1;whiteSpace=wrap;html=1;" vertex="1" parent="1">
          <mxGeometry x="960" y="40" width="320" height="320" as="geometry" />
        </mxCell>
        <mxCell id="PyB6T44rJo8ZGuRNi5BV-11" value="&lt;b&gt;&lt;font style=&quot;font-size: 22px;&quot;&gt;Haciz ve Resmi Kurum İşlemleri&lt;/font&gt;&lt;/b&gt;" style="rounded=1;whiteSpace=wrap;html=1;" vertex="1" parent="1">
          <mxGeometry x="1320" y="40" width="320" height="320" as="geometry" />
        </mxCell>
        <mxCell id="PyB6T44rJo8ZGuRNi5BV-12" value="&lt;b&gt;&lt;font style=&quot;font-size: 18px;&quot;&gt;Kesinleşenler&lt;/font&gt;&lt;/b&gt;" style="text;html=1;align=center;verticalAlign=middle;whiteSpace=wrap;rounded=0;" vertex="1" parent="1">
          <mxGeometry x="560" y="-440" width="280" height="40" as="geometry" />
        </mxCell>
        <mxCell id="PyB6T44rJo8ZGuRNi5BV-13" value="&lt;b&gt;&lt;font style=&quot;font-size: 18px;&quot;&gt;Bilinmeyenler&lt;/font&gt;&lt;/b&gt;" style="text;html=1;align=center;verticalAlign=middle;whiteSpace=wrap;rounded=0;" vertex="1" parent="1">
          <mxGeometry x="810" width="280" height="40" as="geometry" />
        </mxCell>
      </root>
    </mxGraphModel>
  </diagram>
</mxfile>
